<svg width="1440" height="5654" viewBox="0 0 1440 5654" fill="none" xmlns="http://www.w3.org/2000/svg">
<g id="net">
<rect id="Rectangle 2" x="686" y="-43.751" width="400" height="400" transform="rotate(-30.872 686 -43.751)" fill="#FFB23E"/>
<rect id="Rectangle 12" x="273" y="1605.25" width="400" height="400" transform="rotate(-30.872 273 1605.25)" fill="#9EDAF3"/>
<rect id="Rectangle 15" x="-276" y="1467.25" width="400" height="400" transform="rotate(-30.872 -276 1467.25)" fill="#9EDAF3"/>
<rect id="Rectangle 4" x="1235" y="94.9375" width="400" height="400" transform="rotate(-30.872 1235 94.9375)" fill="#FFB23E"/>
<rect id="Rectangle 10" x="-139" y="918.249" width="400" height="400" transform="rotate(-30.872 -139 918.249)" fill="#9EDAF3"/>
<rect id="Rectangle 19" x="67" y="1262.25" width="400" height="400" transform="rotate(-30.872 67 1262.25)" fill="#9EDAF3" fill-opacity="0.26"/>
<rect id="Rectangle 7" x="548" y="507.626" width="400" height="400" transform="rotate(-30.872 548 507.626)" fill="#FFB23E"/>
<rect id="Rectangle 13" x="822" y="1741.25" width="400" height="400" transform="rotate(-30.872 822 1741.25)" fill="#9EDAF3"/>
<rect id="Rectangle 11" x="135" y="2154.25" width="400" height="400" transform="rotate(-30.872 135 2154.25)" fill="#374E72"/>
<rect id="Rectangle 16" x="-414" y="2029.82" width="400" height="400" transform="rotate(-30.872 -414 2029.82)" fill="#9EDAF3"/>
<rect id="Rectangle 5" x="1097" y="643.938" width="400" height="400" transform="rotate(-30.872 1097 643.938)" fill="#FFB23E"/>
<rect id="Rectangle 17" x="890" y="300.249" width="400" height="400" transform="rotate(-30.872 890 300.249)" fill="#FFB23E" fill-opacity="0.36"/>
<rect id="Rectangle 8" x="410" y="1056.63" width="400" height="400" transform="rotate(-30.872 410 1056.63)" fill="#9EDAF3" fill-opacity="0.2"/>
<rect id="Rectangle 14" x="684" y="2290.25" width="400" height="400" transform="rotate(-30.872 684 2290.25)" fill="#374E72"/>
<rect id="Rectangle 18" x="9" y="372.249" width="400" height="400" transform="rotate(-30.872 9 372.249)" fill="#9EDAF3" fill-opacity="0.2"/>
<rect id="Rectangle 20" x="-4" y="2702.25" width="400" height="400" transform="rotate(-30.872 -4 2702.25)" fill="#374E72"/>
<rect id="Rectangle 21" x="545" y="2839.25" width="400" height="400" transform="rotate(-30.872 545 2839.25)" fill="#374E72"/>
<rect id="Rectangle 27" x="-139" y="3251.25" width="400" height="400" transform="rotate(-30.872 -139 3251.25)" fill="#374E72"/>
<rect id="Rectangle 24" x="275" y="3940.25" width="400" height="400" transform="rotate(-30.872 275 3940.25)" fill="#D48E03"/>
<rect id="Rectangle 25" x="806" y="4074.25" width="400" height="400" transform="rotate(-30.872 806 4074.25)" fill="#D48E03"/>
<rect id="Rectangle 26" x="952" y="3524.25" width="400" height="400" transform="rotate(-30.872 952 3524.25)" fill="#374E72"/>
<rect id="Rectangle 20_2" x="965" y="1195.25" width="400" height="400" transform="rotate(-30.872 965 1195.25)" fill="#9EDAF3" fill-opacity="0.2"/>
<rect id="Rectangle 21_2" x="405" y="3391.25" width="400" height="400" transform="rotate(-30.872 405 3391.25)" fill="#D48E03"/>
<rect id="Rectangle 28" x="206" y="3044.25" width="400" height="400" transform="rotate(-30.872 206 3044.25)" fill="#374E72" fill-opacity="0.2"/>
<rect id="Rectangle 35" x="1083" y="5310.25" width="400" height="400" transform="rotate(-30.872 1083 5310.25)" fill="#F2EAD4"/>
<rect id="Rectangle 30" x="670" y="4622.25" width="400" height="400" transform="rotate(-30.872 670 4622.25)" fill="#F2EAD4"/>
<rect id="Rectangle 32" x="534" y="5170.25" width="400" height="400" transform="rotate(-30.872 534 5170.25)" fill="#F2EAD4"/>
<rect id="Rectangle 37" x="-271" y="3798.25" width="400" height="400" transform="rotate(-30.872 -271 3798.25)" fill="#D48E03"/>
<rect id="Rectangle 38" x="1219" y="4733.25" width="400" height="400" transform="rotate(-30.872 1219 4733.25)" fill="#F2EAD4"/>
<rect id="Rectangle 39" x="1355" y="4213.25" width="400" height="400" transform="rotate(-30.872 1355 4213.25)" fill="#D48E03"/>
<rect id="Rectangle 40" x="747" y="3186.25" width="400" height="400" transform="rotate(-30.872 747 3186.25)" fill="#374E72" fill-opacity="0.2"/>
<rect id="Rectangle 21_3" x="891" y="2638.25" width="400" height="400" transform="rotate(-30.872 891 2638.25)" fill="#D48E03" fill-opacity="0.2"/>
</g>
</svg>
