<svg width="420" height="108" viewBox="0 0 420 108" fill="none" xmlns="http://www.w3.org/2000/svg">
<path d="M46.2104 10.372C46.0065 10.4225 45.8536 10.5234 45.7007 10.6244C36.9329 19.3563 28.0123 28.1388 18.9387 36.9212C15.9821 39.7982 13.0255 42.7257 10.069 45.7037C9.45728 46.3598 8.84557 46.3598 8.28485 45.7037C4.92048 41.7667 5.12438 38.0317 8.84557 34.3975C18.225 25.2618 27.7574 15.8232 37.4427 6.18266C39.0229 4.61797 40.5012 3.2047 41.9285 1.99333C43.1009 0.983851 44.6812 0.479113 46.6182 0.58006C49.6258 0.681008 51.1041 2.29617 53.5509 4.66844C63.6949 14.7127 73.788 24.7066 83.8811 34.5994C84.2889 35.0032 84.3909 35.6594 84.085 36.1641C82.199 39.344 75.878 39.344 73.3293 36.8203C64.6635 28.3407 55.8447 19.5582 46.7712 10.5739C46.6182 10.372 46.3634 10.3215 46.2104 10.372Z" fill="#BC82A9"/>
<path d="M98.9674 45.7556L62.5201 9.81823C62.3162 9.61633 62.3162 9.31349 62.5201 9.1116C64.3042 7.49643 67.3118 5.8308 69.8605 6.33553C71.2369 6.63838 72.4093 7.19359 73.4288 8.00117C76.3854 10.4744 79.0361 13.4019 81.8397 16.1779C90.3016 24.5061 98.4577 32.5315 106.257 40.254C109.876 43.8376 109.825 48.3298 106.359 51.762C94.9914 62.9167 84.3375 73.4153 74.4993 83.2577C73.9895 83.7624 73.2759 83.9138 72.7152 83.4091C70.6252 81.3397 69.2488 77.857 70.7271 75.0304C71.2879 73.92 72.0525 72.9105 72.8681 72.103C82.4005 62.6643 91.1172 54.0838 98.9674 46.4118C99.2223 46.1594 99.2223 45.9575 98.9674 45.7556Z" fill="#E9BA45"/>
<path d="M10.221 61.8053C9.9152 62.1081 9.9152 62.5624 10.221 62.8652L46.0566 98.2979C46.4644 98.7016 46.4644 99.3073 46.0566 99.7111C43.7118 101.932 40.5003 102.79 37.5438 101.579C36.5243 101.175 35.4538 100.367 34.2304 99.1559C23.5766 88.6069 12.8718 78.0578 2.11598 67.4079C-0.942532 64.4299 -0.53473 59.9377 2.37086 57.0607C13.2796 46.4612 23.9844 35.9122 34.5872 25.3127C35.1989 24.707 36.0145 24.707 36.6262 25.3127C38.9201 27.6345 39.3789 31.2686 37.9006 34.1961C37.5438 34.9027 36.7792 35.8112 35.6577 36.9216C27.1958 45.3508 18.6829 53.578 10.221 61.8053Z" fill="#B3D29A"/>
<path d="M62.3179 98.1949C62.4708 98.3463 62.7257 98.3968 62.8786 98.2453L99.3769 62.4089C99.5298 62.2575 99.7847 62.2575 99.9376 62.3584C101.467 63.4184 102.435 64.9326 102.843 66.8001C103.353 69.4248 102.537 71.8475 100.243 74.1188C95.7576 78.5101 91.4247 82.8003 87.0918 86.9897C80.7199 93.1475 74.348 99.4062 67.9761 105.766C65.9881 107.734 62.6747 108.643 60.075 107.482C58.8006 106.927 57.6281 106.119 56.6596 105.11C46.2097 94.7122 35.7088 84.3146 25.1569 73.9674C24.4433 73.3113 24.4942 72.6046 25.2079 71.9989C28.9801 68.6172 33.262 69.3743 36.6264 72.7056C44.8334 80.8319 52.5816 88.4534 59.8201 95.6712C60.6867 96.3778 61.5023 97.2863 62.3179 98.1949Z" fill="#6C95D8"/>
<path d="M131.89 53.477C131.279 53.477 130.973 53.7799 130.973 54.3856V68.4173C130.973 68.6697 130.769 68.8716 130.565 68.8716L121.797 68.922C121.44 68.922 121.186 68.6697 121.186 68.3163V28.9972C121.186 28.442 121.491 28.1392 122.052 28.1392H150.445C151.873 28.1392 153.249 28.2401 154.472 28.3915C160.487 29.1991 165.228 33.8427 165.585 39.95C165.789 42.827 165.177 45.3003 163.75 47.3192C161.966 49.9439 159.825 51.7104 157.378 52.6694C156.053 53.1742 154.167 53.4266 151.618 53.3761C144.226 53.2751 137.651 53.3256 131.89 53.477ZM131.075 39.2939V42.4233C131.075 43.1804 131.686 43.7861 132.451 43.7861L152.739 43.887C154.37 43.887 155.747 42.6252 155.747 41.01V40.909C155.747 39.2939 154.421 38.032 152.739 37.9816L132.451 37.8806C131.737 37.9311 131.126 38.5368 131.075 39.2939Z" fill="#FBFBFF"/>
<path d="M181.59 53.6296C181.539 53.781 181.488 53.9829 181.488 54.1343C181.437 58.9798 181.437 63.6739 181.437 68.267C181.437 68.5699 181.182 68.8727 180.825 68.8727H172.312C172.057 68.8727 171.854 68.6708 171.854 68.4184V28.746C171.854 28.3927 172.108 28.1403 172.465 28.1403C182.1 28.1403 191.785 28.1403 201.47 28.0898C207.485 28.0898 212.685 31.0678 214.826 36.8723C215.284 38.1341 215.488 40.0521 215.284 42.5254C215.132 44.5443 214.52 46.3109 213.449 47.7746C213.245 48.027 213.245 48.3803 213.449 48.6327C215.03 50.5507 215.845 52.8725 215.896 55.5476C215.947 59.7369 215.947 64.0777 215.896 68.5194C215.896 68.7213 215.743 68.8727 215.539 68.8727H206.874C206.619 68.8727 206.364 68.6708 206.364 68.368C206.415 64.1786 206.415 60.2922 206.313 56.759C206.262 54.9924 205.242 53.4277 203.305 53.3772C195.863 53.3268 188.726 53.2763 181.896 53.3772C181.794 53.3772 181.641 53.4782 181.59 53.6296ZM181.539 38.5379V43.1311C181.539 43.4844 181.845 43.7872 182.201 43.7872L202.846 43.8882C204.529 43.8882 205.905 42.5758 205.956 40.9607C205.956 39.3455 204.58 37.9827 202.897 37.9827L182.252 37.8818C181.845 37.8818 181.539 38.1846 181.539 38.5379Z" fill="#FBFBFF"/>
<path d="M269.829 56.354C269.829 63.269 264.222 68.8716 257.239 68.8716L234.962 68.922C227.979 68.922 222.321 63.3699 222.321 56.455L222.27 40.7071C222.27 33.7922 227.877 28.1896 234.86 28.1896L257.137 28.1392C264.12 28.1392 269.778 33.6913 269.778 40.6062L269.829 56.354ZM260.144 41.1109C260.144 39.3444 258.717 37.9311 256.933 37.9311H235.217C233.433 37.9311 232.006 39.3444 232.006 41.1109V56.2026C232.006 57.9692 233.433 59.3825 235.217 59.3825H256.933C258.717 59.3825 260.144 57.9692 260.144 56.2026V41.1109Z" fill="#FBFBFF"/>
<path d="M288.997 37.9809C285.786 37.9809 285.582 39.7475 285.582 42.4731C285.633 51.0536 285.684 59.6847 285.633 68.4671C285.633 68.7195 285.429 68.9214 285.174 68.9214L276.508 68.8709C276.049 68.8709 275.845 68.6185 275.896 68.1643C275.947 67.7605 275.998 67.3567 275.998 67.0034C275.998 58.6752 275.947 50.0441 275.998 41.0598C275.998 32.7821 282.319 28.189 290.169 28.189H306.787C309.591 28.189 312.293 28.9461 314.841 30.5108C319.327 33.2363 320.398 38.0818 320.398 43.0283C320.398 51.5584 320.398 60.038 320.347 68.4166C320.347 68.669 320.143 68.9214 319.837 68.9214H311.426C311.018 68.9214 310.814 68.7195 310.763 68.3157C310.712 66.8015 310.661 65.1863 310.661 63.5207C310.712 55.6467 310.712 48.1766 310.61 41.1607C310.61 39.0913 309.489 38.0314 307.348 38.0314C301.894 37.9304 295.726 37.9304 288.997 37.9809Z" fill="#FBFBFF"/>
<path d="M336.404 53.6793C336.047 56.4049 336.404 59.3828 339.87 59.3828H364.287C364.491 59.3828 364.644 59.5342 364.644 59.7361V68.4681C364.644 68.67 364.491 68.8214 364.287 68.8214C355.774 68.8719 347.822 68.8719 340.38 68.8214C339.054 68.8214 337.729 68.7205 336.404 68.5186C332.173 67.9634 328.401 64.0264 327.126 60.4428C326.667 59.1304 326.412 57.4143 326.463 55.4458C326.514 51.0041 326.514 46.512 326.463 42.0198C326.463 39.5466 326.718 37.6791 327.228 36.3667C329.42 31.0165 334.263 28.19 339.972 28.1395C347.822 28.0385 355.774 28.089 363.828 28.19C364.032 28.19 364.236 28.3919 364.236 28.5938L364.134 37.5276C364.134 37.7295 363.93 37.9314 363.726 37.9314H339.564C338.239 37.9314 336.811 38.1838 336.506 39.698C336.251 40.8084 336.2 42.0703 336.302 43.4331C336.302 43.6854 336.506 43.8369 336.76 43.8369H362.401C362.809 43.8369 363.064 44.0388 363.013 44.4426V52.7203C363.013 52.9726 362.809 53.225 362.503 53.225L336.76 53.2755C336.557 53.3764 336.455 53.4774 336.404 53.6793Z" fill="#FBFBFF"/>
<path d="M386.564 38.7886C386.513 38.4858 386.258 38.2334 385.952 38.1829C383.098 37.9306 380.243 37.8801 377.439 38.0315C375.4 38.1324 373.361 37.9306 371.322 37.9306C371.068 37.9306 370.813 37.7287 370.813 37.4258L370.762 28.8957C370.762 28.4919 370.966 28.29 371.373 28.2396C372.24 28.1891 373.107 28.1891 373.922 28.1891C385.748 28.0881 398.237 28.0881 411.389 28.1386C411.746 28.1386 412.001 28.4415 412.001 28.7443L411.95 37.6782C411.95 37.8296 411.848 37.9306 411.695 37.9306L396.555 37.981C396.402 37.981 396.3 38.082 396.3 38.2334C396.249 39.1924 396.198 40.2019 396.198 41.2114C396.147 50.1452 396.147 59.18 396.198 68.2653C396.198 68.7196 395.994 68.9215 395.536 68.9215H387.278C387.023 68.9215 386.819 68.7196 386.768 68.4672C386.717 66.7511 386.666 65.0855 386.666 63.5713C386.717 56.7573 386.717 49.4386 386.717 41.5142C386.717 40.5552 386.717 39.6971 386.564 38.7886Z" fill="#FBFBFF"/>
<path d="M123.468 90.1134H133.038C134.709 90.1134 135.846 89.9222 136.45 89.5398C137.074 89.1372 137.406 88.4026 137.446 87.3359C137.446 86.0881 137.144 85.283 136.54 84.9207C135.937 84.5584 134.628 84.3773 132.616 84.3773H123.468V90.1134ZM139.861 95.7287V98.8081H137.416V97.1477C137.416 95.7992 137.305 94.8432 137.084 94.2796C136.862 93.7161 136.4 93.3135 135.695 93.072C134.991 92.8305 133.833 92.7097 132.223 92.7097H123.468V98.8081H121.023V81.7809H133.34C135.937 81.7809 137.678 82.103 138.563 82.747C139.469 83.3911 139.922 84.6188 139.922 86.4302V87.0642C139.922 88.3926 139.69 89.3788 139.227 90.0228C138.785 90.6669 138.11 91.1197 137.205 91.3814C138.332 91.5826 139.056 91.965 139.378 92.5286C139.7 93.072 139.861 94.1387 139.861 95.7287ZM151.27 99.0194H150.636C148.542 99.0194 146.973 98.8484 145.926 98.5062C144.899 98.1641 144.185 97.5804 143.782 96.7552C143.38 95.9099 143.179 94.6318 143.179 92.9211V92.6192C143.179 90.1637 143.652 88.5435 144.598 87.7586C145.544 86.9736 147.466 86.5812 150.364 86.5812H150.968C152.92 86.5812 154.389 86.7522 155.375 87.0944C156.382 87.4164 157.066 87.9296 157.428 88.6341C157.811 89.3184 158.002 90.3348 158.002 91.6833V93.1928H145.443V93.3739C145.443 94.984 145.755 96.0306 146.379 96.5137C147.023 96.9766 148.452 97.208 150.666 97.208H151.149C153.101 97.208 154.379 97.0571 154.983 96.7552C155.587 96.4332 155.889 95.8092 155.889 94.8834V94.5815H158.093V94.9438C158.093 96.5137 157.599 97.5904 156.613 98.1741C155.627 98.7377 153.846 99.0194 151.27 99.0194ZM145.473 91.5625H155.768V91.2606C155.768 90.4555 155.657 89.8618 155.436 89.4794C155.235 89.097 154.792 88.8152 154.107 88.6341C153.423 88.4328 152.356 88.3322 150.907 88.3322H150.545C148.391 88.3322 147.013 88.5234 146.409 88.9058C145.825 89.2882 145.513 90.1738 145.473 91.5625ZM176.203 81.8413V98.8081H173.999L173.938 97.1477C173.495 97.8722 172.861 98.3653 172.036 98.627C171.231 98.8886 169.943 99.0194 168.172 99.0194H167.81C164.992 99.0194 163.14 98.627 162.255 97.842C161.389 97.0571 160.957 95.4168 160.957 92.9211V92.589C160.957 90.0933 161.399 88.4731 162.285 87.7284C163.17 86.9636 165.012 86.5812 167.81 86.5812H168.263C169.933 86.5812 171.191 86.712 172.036 86.9736C172.882 87.2151 173.506 87.6881 173.908 88.3926V81.8413H176.203ZM168.202 97.1477H168.806C171.02 97.1477 172.429 96.8961 173.033 96.3929C173.636 95.8897 173.938 94.7325 173.938 92.9211V92.589C173.938 90.7776 173.636 89.6303 173.033 89.1473C172.429 88.6643 171.02 88.4227 168.806 88.4227H168.202C166.049 88.4227 164.68 88.6643 164.096 89.1473C163.533 89.6303 163.251 90.7776 163.251 92.589V92.9211C163.251 94.7325 163.543 95.8897 164.127 96.3929C164.71 96.8961 166.069 97.1477 168.202 97.1477ZM187.739 99.0194H187.105C185.012 99.0194 183.442 98.8484 182.396 98.5062C181.369 98.1641 180.655 97.5804 180.252 96.7552C179.85 95.9099 179.648 94.6318 179.648 92.9211V92.6192C179.648 90.1637 180.121 88.5435 181.067 87.7586C182.013 86.9736 183.935 86.5812 186.834 86.5812H187.437C189.39 86.5812 190.859 86.7522 191.845 87.0944C192.852 87.4164 193.536 87.9296 193.898 88.6341C194.28 89.3184 194.472 90.3348 194.472 91.6833V93.1928H181.913V93.3739C181.913 94.984 182.225 96.0306 182.849 96.5137C183.493 96.9766 184.922 97.208 187.136 97.208H187.619C189.571 97.208 190.849 97.0571 191.453 96.7552C192.057 96.4332 192.358 95.8092 192.358 94.8834V94.5815H194.562V94.9438C194.562 96.5137 194.069 97.5904 193.083 98.1741C192.097 98.7377 190.316 99.0194 187.739 99.0194ZM181.943 91.5625H192.238V91.2606C192.238 90.4555 192.127 89.8618 191.906 89.4794C191.704 89.097 191.261 88.8152 190.577 88.6341C189.893 88.4328 188.826 88.3322 187.377 88.3322H187.015C184.861 88.3322 183.483 88.5234 182.879 88.9058C182.295 89.2882 181.983 90.1738 181.943 91.5625ZM205.638 99.0194H204.672C202.559 99.0194 200.999 98.9188 199.992 98.7175C198.986 98.4961 198.302 98.154 197.94 97.6911C197.597 97.208 197.426 96.4734 197.426 95.4872V95.0344H199.721V95.2759C199.721 95.8595 199.811 96.2721 199.992 96.5137C200.174 96.7552 200.596 96.9363 201.26 97.0571C201.945 97.1778 203.062 97.2382 204.612 97.2382H205.578C207.449 97.2382 208.637 97.1275 209.14 96.9061C209.643 96.6646 209.895 96.1715 209.895 95.4268V95.2155C209.895 94.7123 209.784 94.3601 209.563 94.1588C209.361 93.9375 208.899 93.7764 208.174 93.6758C207.47 93.555 206.322 93.4947 204.732 93.4947C201.794 93.4947 199.892 93.2833 199.026 92.8607C198.181 92.438 197.758 91.5223 197.758 90.1134V89.8115C197.758 88.5838 198.201 87.7384 199.087 87.2755C199.972 86.8126 201.653 86.5812 204.128 86.5812H204.883C207.62 86.5812 209.422 86.8126 210.287 87.2755C211.173 87.7183 211.616 88.6542 211.616 90.0832V90.4455H209.412V90.1738C209.412 89.409 209.15 88.9158 208.627 88.6945C208.104 88.4529 206.896 88.3322 205.004 88.3322H204.31C202.438 88.3322 201.25 88.4328 200.747 88.6341C200.244 88.8152 199.992 89.2278 199.992 89.8719V90.0832C199.992 90.7876 200.274 91.2405 200.838 91.4417C201.421 91.6229 202.81 91.7135 205.004 91.7135C207.902 91.7135 209.814 91.9449 210.74 92.4078C211.666 92.8506 212.129 93.7462 212.129 95.0947V95.3664C212.129 96.7552 211.686 97.7112 210.8 98.2345C209.915 98.7578 208.194 99.0194 205.638 99.0194ZM237.526 81.8413V98.8081H235.322L235.262 97.1477C234.819 97.8722 234.185 98.3653 233.36 98.627C232.555 98.8886 231.267 99.0194 229.495 99.0194H229.133C226.315 99.0194 224.464 98.627 223.578 97.842C222.713 97.0571 222.28 95.4168 222.28 92.9211V92.589C222.28 90.0933 222.723 88.4731 223.608 87.7284C224.494 86.9636 226.336 86.5812 229.133 86.5812H229.586C231.256 86.5812 232.514 86.712 233.36 86.9736C234.205 87.2151 234.829 87.6881 235.232 88.3926V81.8413H237.526ZM229.526 97.1477H230.129C232.343 97.1477 233.752 96.8961 234.356 96.3929C234.96 95.8897 235.262 94.7325 235.262 92.9211V92.589C235.262 90.7776 234.96 89.6303 234.356 89.1473C233.752 88.6643 232.343 88.4227 230.129 88.4227H229.526C227.372 88.4227 226.003 88.6643 225.42 89.1473C224.856 89.6303 224.574 90.7776 224.574 92.589V92.9211C224.574 94.7325 224.866 95.8897 225.45 96.3929C226.034 96.8961 227.392 97.1477 229.526 97.1477ZM249.063 99.0194H248.429C246.336 99.0194 244.766 98.8484 243.719 98.5062C242.693 98.1641 241.978 97.5804 241.576 96.7552C241.173 95.9099 240.972 94.6318 240.972 92.9211V92.6192C240.972 90.1637 241.445 88.5435 242.391 87.7586C243.337 86.9736 245.259 86.5812 248.157 86.5812H248.761C250.713 86.5812 252.182 86.7522 253.169 87.0944C254.175 87.4164 254.859 87.9296 255.222 88.6341C255.604 89.3184 255.795 90.3348 255.795 91.6833V93.1928H243.236V93.3739C243.236 94.984 243.548 96.0306 244.172 96.5137C244.816 96.9766 246.245 97.208 248.459 97.208H248.942C250.894 97.208 252.172 97.0571 252.776 96.7552C253.38 96.4332 253.682 95.8092 253.682 94.8834V94.5815H255.886V94.9438C255.886 96.5137 255.393 97.5904 254.406 98.1741C253.42 98.7377 251.639 99.0194 249.063 99.0194ZM243.266 91.5625H253.561V91.2606C253.561 90.4555 253.45 89.8618 253.229 89.4794C253.028 89.097 252.585 88.8152 251.901 88.6341C251.216 88.4328 250.15 88.3322 248.7 88.3322H248.338C246.185 88.3322 244.806 88.5234 244.202 88.9058C243.619 89.2882 243.307 90.1738 243.266 91.5625ZM285.264 93.5249V94.0985C285.264 95.4671 285.022 96.4935 284.539 97.1778C284.076 97.842 283.241 98.315 282.033 98.5968C280.846 98.8785 279.034 99.0194 276.599 99.0194H275.814C274.285 99.0194 273.037 98.9993 272.071 98.9591C271.125 98.9188 270.269 98.8182 269.504 98.6572C268.74 98.4961 268.166 98.315 267.784 98.1137C267.401 97.9125 267.089 97.6005 266.848 97.1778C266.606 96.7552 266.455 96.3124 266.395 95.8495C266.335 95.3664 266.304 94.7224 266.304 93.9173V93.3739H268.78C268.78 94.34 268.931 95.0142 269.233 95.3966C269.535 95.779 270.128 96.0407 271.014 96.1816C271.92 96.3225 273.479 96.3929 275.693 96.3929H276.418C278.29 96.3929 279.658 96.3225 280.524 96.1816C281.409 96.0206 282.013 95.7489 282.335 95.3664C282.657 94.984 282.818 94.3903 282.818 93.5852C282.818 92.9613 282.667 92.5185 282.365 92.2569C282.084 91.9751 281.46 91.7738 280.494 91.6531C279.548 91.5323 278.008 91.4719 275.875 91.4719C274.164 91.4719 272.775 91.4216 271.708 91.321C270.642 91.2204 269.756 91.0795 269.052 90.8983C268.367 90.7172 267.854 90.4253 267.512 90.0228C267.19 89.6203 266.968 89.1876 266.848 88.7246C266.747 88.2416 266.697 87.5875 266.697 86.7623V86.1887C266.697 84.3572 267.24 83.1294 268.327 82.5055C269.434 81.8816 271.638 81.5696 274.939 81.5696H275.633C278.33 81.5696 280.302 81.7206 281.55 82.0225C282.798 82.3042 283.633 82.7772 284.056 83.4414C284.479 84.0854 284.69 85.122 284.69 86.551V87.0642H282.275C282.275 86.2189 282.134 85.605 281.852 85.2226C281.57 84.8402 280.997 84.5685 280.131 84.4075C279.266 84.2465 277.867 84.166 275.935 84.166H275.361C272.825 84.166 271.165 84.3169 270.38 84.6188C269.595 84.9006 269.182 85.5144 269.142 86.4604C269.182 87.1246 269.343 87.6076 269.625 87.9095C269.927 88.2114 270.561 88.4328 271.527 88.5737C272.493 88.7146 274.013 88.785 276.086 88.785C278.783 88.785 280.765 88.9259 282.033 89.2077C283.321 89.4895 284.177 89.9423 284.599 90.5662C285.042 91.1902 285.264 92.1764 285.264 93.5249ZM296.471 99.0194H295.837C293.743 99.0194 292.173 98.8484 291.127 98.5062C290.1 98.1641 289.386 97.5804 288.983 96.7552C288.581 95.9099 288.38 94.6318 288.38 92.9211V92.6192C288.38 90.1637 288.853 88.5435 289.799 87.7586C290.744 86.9736 292.667 86.5812 295.565 86.5812H296.169C298.121 86.5812 299.59 86.7522 300.576 87.0944C301.583 87.4164 302.267 87.9296 302.629 88.6341C303.012 89.3184 303.203 90.3348 303.203 91.6833V93.1928H290.644V93.3739C290.644 94.984 290.956 96.0306 291.58 96.5137C292.224 96.9766 293.653 97.208 295.867 97.208H296.35C298.302 97.208 299.58 97.0571 300.184 96.7552C300.788 96.4332 301.09 95.8092 301.09 94.8834V94.5815H303.293V94.9438C303.293 96.5137 302.8 97.5904 301.814 98.1741C300.828 98.7377 299.047 99.0194 296.471 99.0194ZM290.674 91.5625H300.969V91.2606C300.969 90.4555 300.858 89.8618 300.637 89.4794C300.435 89.097 299.993 88.8152 299.308 88.6341C298.624 88.4328 297.557 88.3322 296.108 88.3322H295.746C293.592 88.3322 292.214 88.5234 291.61 88.9058C291.026 89.2882 290.714 90.1738 290.674 91.5625ZM313.765 103.216H313.071C310.455 103.216 308.683 102.984 307.758 102.521C306.852 102.059 306.399 101.072 306.399 99.5629V99.1704H308.693V99.4723C308.693 100.217 308.965 100.71 309.509 100.952C310.072 101.193 311.26 101.314 313.071 101.314H313.765C315.959 101.314 317.368 101.062 317.992 100.559C318.636 100.056 318.978 98.9993 319.018 97.3892L318.958 96.091C318.616 96.7753 318.022 97.2684 317.177 97.5703C316.352 97.8521 315.084 97.993 313.373 97.993H312.98C310.223 97.993 308.392 97.6408 307.486 96.9363C306.6 96.2118 306.157 94.7224 306.157 92.4682V92.1361C306.157 89.8618 306.6 88.3724 307.486 87.668C308.371 86.9434 310.183 86.5812 312.92 86.5812H313.313C314.963 86.5812 316.211 86.722 317.056 87.0038C317.922 87.2655 318.586 87.7485 319.049 88.4529V86.7925H321.283V97.1477C321.283 98.4961 321.182 99.5427 320.981 100.287C320.8 101.052 320.407 101.666 319.803 102.129C319.2 102.592 318.445 102.884 317.539 103.005C316.654 103.145 315.396 103.216 313.765 103.216ZM313.343 96.1514H313.916C316.07 96.1514 317.459 95.9199 318.083 95.457C318.706 94.9941 319.018 93.9777 319.018 92.4078V92.1059C319.018 90.5763 318.696 89.58 318.052 89.1171C317.428 88.6542 316.05 88.4227 313.916 88.4227H313.343C311.25 88.4227 309.901 88.6441 309.297 89.0869C308.714 89.5297 308.422 90.536 308.422 92.1059V92.4078C308.422 93.9978 308.714 95.0243 309.297 95.4872C309.881 95.93 311.229 96.1514 313.343 96.1514ZM339.766 86.7925V98.8081H337.441V96.7854C336.556 98.2747 334.654 99.0194 331.735 99.0194H331.343C328.847 99.0194 327.167 98.6572 326.301 97.9326C325.436 97.1879 325.003 95.769 325.003 93.6758V86.7925H327.328V93.1324C327.328 94.7828 327.599 95.8595 328.143 96.3627C328.706 96.8659 329.964 97.1175 331.917 97.1175H332.309C334.181 97.1175 335.509 96.8558 336.294 96.3325C337.079 95.7891 337.472 94.7626 337.472 93.2531V86.7925H339.766ZM346.025 92.2569V98.8081H343.73V86.7925H345.994L346.055 88.936C346.477 88.0907 347.061 87.4869 347.806 87.1246C348.55 86.7623 349.667 86.5812 351.157 86.5812H351.459C353.552 86.5812 354.91 86.8529 355.534 87.3963C356.178 87.9397 356.5 88.9762 356.5 90.5059V90.9285C356.5 90.9889 356.49 91.0795 356.47 91.2002C356.47 91.321 356.47 91.4116 356.47 91.4719H354.357V90.8379C354.357 89.8115 354.136 89.1574 353.693 88.8756C353.25 88.5737 352.224 88.4227 350.613 88.4227H350.372C348.903 88.4227 347.806 88.7146 347.081 89.2983C346.377 89.8618 346.025 90.848 346.025 92.2569ZM361.355 86.7925V98.8081H359.06V86.7925H361.355ZM361.355 81.8413V84.3471H359.06V81.8413H361.355ZM379.897 81.8413V98.8081H377.693L377.632 97.1477C377.19 97.8722 376.556 98.3653 375.73 98.627C374.925 98.8886 373.637 99.0194 371.866 99.0194H371.504C368.686 99.0194 366.834 98.627 365.949 97.842C365.083 97.0571 364.651 95.4168 364.651 92.9211V92.589C364.651 90.0933 365.093 88.4731 365.979 87.7284C366.865 86.9636 368.706 86.5812 371.504 86.5812H371.957C373.627 86.5812 374.885 86.712 375.73 86.9736C376.576 87.2151 377.2 87.6881 377.602 88.3926V81.8413H379.897ZM371.896 97.1477H372.5C374.714 97.1477 376.123 96.8961 376.727 96.3929C377.33 95.8897 377.632 94.7325 377.632 92.9211V92.589C377.632 90.7776 377.33 89.6303 376.727 89.1473C376.123 88.6643 374.714 88.4227 372.5 88.4227H371.896C369.743 88.4227 368.374 88.6643 367.79 89.1473C367.227 89.6303 366.945 90.7776 366.945 92.589V92.9211C366.945 94.7325 367.237 95.8897 367.821 96.3929C368.404 96.8961 369.763 97.1477 371.896 97.1477ZM397.562 92.3474V98.8081H395.268L395.237 97.6005C394.795 98.1439 394.191 98.5163 393.426 98.7175C392.681 98.9188 391.514 99.0194 389.924 99.0194H389.441C386.965 99.0194 385.325 98.7679 384.52 98.2647C383.715 97.7414 383.312 96.7552 383.312 95.3061V95.0344C383.312 93.6255 383.725 92.6695 384.55 92.1663C385.395 91.6631 386.965 91.4116 389.26 91.4116H389.773C391.403 91.4116 392.611 91.4921 393.396 91.6531C394.201 91.8141 394.815 92.1059 395.237 92.5286V91.8644C395.237 90.999 395.197 90.365 395.117 89.9624C395.056 89.5599 394.855 89.2177 394.513 88.936C394.171 88.6542 393.718 88.4831 393.154 88.4227C392.591 88.3624 391.745 88.3322 390.618 88.3322H390.165C388.455 88.3322 387.328 88.4529 386.784 88.6945C386.261 88.936 385.999 89.4291 385.999 90.1738V90.4455H383.765V90.0832C383.765 88.7146 384.228 87.7888 385.154 87.3057C386.1 86.8227 387.79 86.5812 390.226 86.5812H390.739C392.329 86.5812 393.527 86.6415 394.332 86.7623C395.157 86.8629 395.831 87.1346 396.354 87.5774C396.878 88.0202 397.21 88.5938 397.351 89.2983C397.492 89.9826 397.562 90.999 397.562 92.3474ZM390.165 97.2684H390.528C392.48 97.2684 393.758 97.1376 394.362 96.8759C394.966 96.6143 395.268 96.0608 395.268 95.2155V95.0645C395.268 94.2394 394.956 93.7161 394.332 93.4947C393.728 93.2531 392.41 93.1324 390.377 93.1324H389.954C388.123 93.1324 386.935 93.2531 386.392 93.4947C385.868 93.7362 385.607 94.2695 385.607 95.0947V95.2155C385.607 96.1011 385.878 96.6646 386.422 96.9061C386.965 97.1477 388.213 97.2684 390.165 97.2684ZM416.071 81.8413V98.8081H413.868L413.807 97.1477C413.364 97.8722 412.73 98.3653 411.905 98.627C411.1 98.8886 409.812 99.0194 408.041 99.0194H407.679C404.861 99.0194 403.009 98.627 402.124 97.842C401.258 97.0571 400.826 95.4168 400.826 92.9211V92.589C400.826 90.0933 401.268 88.4731 402.154 87.7284C403.039 86.9636 404.881 86.5812 407.679 86.5812H408.132C409.802 86.5812 411.06 86.712 411.905 86.9736C412.751 87.2151 413.375 87.6881 413.777 88.3926V81.8413H416.071ZM408.071 97.1477H408.675C410.889 97.1477 412.298 96.8961 412.902 96.3929C413.505 95.8897 413.807 94.7325 413.807 92.9211V92.589C413.807 90.7776 413.505 89.6303 412.902 89.1473C412.298 88.6643 410.889 88.4227 408.675 88.4227H408.071C405.918 88.4227 404.549 88.6643 403.965 89.1473C403.402 89.6303 403.12 90.7776 403.12 92.589V92.9211C403.12 94.7325 403.412 95.8897 403.995 96.3929C404.579 96.8961 405.938 97.1477 408.071 97.1477Z" fill="#C4C4C4"/>
</svg>
