<svg width="673" height="171" viewBox="0 0 673 171" fill="none" xmlns="http://www.w3.org/2000/svg">
<path d="M72.8307 15.6063C72.5093 15.6867 72.2683 15.8474 72.0273 16.008C58.2086 29.9071 44.1489 43.8864 29.8482 57.8657C25.1884 62.4452 20.5286 67.105 15.8689 71.8451C14.9048 72.8895 13.9407 72.8895 13.0569 71.8451C7.75441 65.5785 8.07577 59.6332 13.9407 53.8487C28.7234 39.307 43.7472 24.2832 59.012 8.93804C61.5026 6.44746 63.8325 4.19791 66.082 2.26973C67.9299 0.662908 70.4204 -0.140503 73.4734 0.0201792C78.2135 0.180861 80.5434 2.75178 84.3998 6.5278C100.388 22.5157 116.295 38.4232 132.203 54.17C132.845 54.8128 133.006 55.8572 132.524 56.6606C129.551 61.7221 119.589 61.7221 115.572 57.7051C101.914 44.2078 88.0151 30.2284 73.7144 15.9277C73.4734 15.6063 73.0717 15.526 72.8307 15.6063Z" fill="#BC82A9"/>
<path d="M155.982 71.9239L98.5379 14.721C98.2165 14.3997 98.2165 13.9176 98.5379 13.5963C101.35 11.0253 106.09 8.37409 110.107 9.1775C112.276 9.65955 114.124 10.5433 115.731 11.8288C120.391 15.7655 124.568 20.4252 128.987 24.844C142.324 38.1003 155.178 50.8745 167.471 63.1667C173.175 68.8709 173.094 76.0213 167.631 81.4844C149.715 99.2398 132.924 115.951 117.418 131.617C116.615 132.421 115.49 132.662 114.606 131.858C111.312 128.564 109.143 123.021 111.473 118.522C112.357 116.754 113.562 115.147 114.847 113.862C129.871 98.8381 143.609 85.1801 155.982 72.9683C156.383 72.5666 156.383 72.2452 155.982 71.9239Z" fill="#E9BA45"/>
<path d="M16.1092 97.4737C15.6271 97.9558 15.6271 98.6788 16.1092 99.1609L72.5889 155.56C73.2317 156.203 73.2317 157.167 72.5889 157.81C68.8933 161.345 63.8318 162.711 59.172 160.782C57.5652 160.14 55.878 158.854 53.9498 156.926C37.1585 140.135 20.2869 123.344 3.33496 106.392C-1.48551 101.651 -0.842777 94.5011 3.73666 89.9217C20.9296 73.05 37.8013 56.2588 54.5122 39.3871C55.4763 38.423 56.7618 38.423 57.7258 39.3871C61.3412 43.0828 62.0643 48.8674 59.7344 53.5272C59.172 54.6519 57.9669 56.0981 56.1994 57.8656C42.8628 71.2825 29.4458 84.3781 16.1092 97.4737Z" fill="#B3D29A"/>
<path d="M98.2169 155.4C98.4579 155.641 98.8596 155.722 99.1006 155.481L156.625 98.4384C156.866 98.1974 157.268 98.1974 157.509 98.3581C159.919 100.045 161.445 102.455 162.088 105.428C162.891 109.606 161.606 113.462 157.991 117.078C150.921 124.067 144.092 130.896 137.263 137.565C127.22 147.366 117.177 157.328 107.135 167.451C104.001 170.585 98.7793 172.031 94.6819 170.183C92.6733 169.299 90.8255 168.014 89.299 166.407C72.8291 149.857 56.2788 133.306 39.6482 116.837C38.5235 115.792 38.6038 114.667 39.7286 113.703C45.6738 108.32 52.4225 109.525 57.725 114.828C70.6599 127.763 82.8717 139.894 94.2802 151.383C95.646 152.508 96.9314 153.954 98.2169 155.4Z" fill="#6C95D8"/>
<path d="M207.872 84.2179C206.908 84.2179 206.425 84.7 206.425 85.6641V107.999C206.425 108.401 206.104 108.722 205.783 108.722L191.964 108.802C191.402 108.802 191 108.401 191 107.838V45.2525C191 44.3688 191.482 43.8867 192.366 43.8867H237.116C239.365 43.8867 241.535 44.0474 243.463 44.2884C252.943 45.5739 260.415 52.9653 260.977 62.6865C261.298 67.266 260.334 71.2027 258.085 74.4163C255.273 78.5941 251.899 81.406 248.042 82.9325C245.953 83.7359 242.981 84.1376 238.964 84.0572C227.314 83.8966 216.95 83.9769 207.872 84.2179ZM206.586 61.6421V66.6232C206.586 67.8284 207.55 68.7924 208.755 68.7924L240.731 68.9531C243.302 68.9531 245.471 66.9446 245.471 64.3737V64.213C245.471 61.6421 243.382 59.6336 240.731 59.5532L208.755 59.3925C207.631 59.4729 206.667 60.437 206.586 61.6421Z" fill="#59575A"/>
<path d="M286.205 84.4573C286.124 84.6983 286.044 85.0196 286.044 85.2607C285.963 92.9734 285.963 100.445 285.963 107.756C285.963 108.238 285.562 108.72 284.999 108.72H271.582C271.181 108.72 270.859 108.399 270.859 107.997V44.8491C270.859 44.2867 271.261 43.885 271.823 43.885C287.008 43.885 302.273 43.885 317.538 43.8047C327.018 43.8047 335.213 48.5448 338.587 57.784C339.31 59.7926 339.631 62.8455 339.31 66.7822C339.069 69.9959 338.105 72.8078 336.418 75.1377C336.096 75.5394 336.096 76.1018 336.418 76.5035C338.908 79.5565 340.194 83.2521 340.274 87.5102C340.354 94.1785 340.354 101.088 340.274 108.158C340.274 108.479 340.033 108.72 339.712 108.72H326.054C325.652 108.72 325.25 108.399 325.25 107.917C325.331 101.249 325.331 95.0623 325.17 89.4384C325.09 86.6265 323.483 84.1359 320.43 84.0556C308.7 83.9752 297.452 83.8949 286.687 84.0556C286.526 84.0556 286.285 84.2162 286.205 84.4573ZM286.124 60.4353V67.7463C286.124 68.3087 286.606 68.7908 287.169 68.7908L319.707 68.9514C322.358 68.9514 324.527 66.8626 324.608 64.2917C324.608 61.7207 322.438 59.5515 319.787 59.5515L287.249 59.3909C286.606 59.3909 286.124 59.8729 286.124 60.4353Z" fill="#59575A"/>
<path d="M425.275 88.7974C425.275 99.8041 416.437 108.722 405.43 108.722L370.321 108.802C359.315 108.802 350.397 99.9648 350.397 88.958L350.316 63.8916C350.316 52.8849 359.154 43.9671 370.161 43.9671L405.27 43.8867C416.276 43.8867 425.194 52.7242 425.194 63.731L425.275 88.7974ZM410.01 64.5344C410.01 61.7224 407.76 59.4729 404.948 59.4729H370.723C367.911 59.4729 365.662 61.7224 365.662 64.5344V88.5563C365.662 91.3683 367.911 93.6178 370.723 93.6178H404.948C407.76 93.6178 410.01 91.3683 410.01 88.5563V64.5344Z" fill="#59575A"/>
<path d="M455.482 59.553C450.42 59.553 450.099 62.3649 450.099 66.7033C450.179 80.3613 450.26 94.0996 450.179 108.079C450.179 108.481 449.858 108.802 449.456 108.802L435.798 108.722C435.075 108.722 434.754 108.32 434.834 107.597C434.915 106.954 434.995 106.311 434.995 105.749C434.995 92.4928 434.915 78.7545 434.995 64.4538C434.995 51.2778 444.957 43.9668 457.33 43.9668H483.521C487.94 43.9668 492.198 45.1719 496.215 47.6625C503.285 52.0009 504.972 59.7136 504.972 67.5871C504.972 81.1647 504.972 94.662 504.892 107.999C504.892 108.4 504.57 108.802 504.088 108.802H490.832C490.189 108.802 489.868 108.481 489.788 107.838C489.707 105.428 489.627 102.857 489.627 100.206C489.707 87.6723 489.707 75.7819 489.547 64.6144C489.547 61.3205 487.779 59.6333 484.405 59.6333C475.808 59.4726 466.087 59.4726 455.482 59.553Z" fill="#59575A"/>
<path d="M530.2 84.539C529.638 88.8774 530.2 93.6175 535.663 93.6175H574.147C574.468 93.6175 574.709 93.8585 574.709 94.1799V108.079C574.709 108.4 574.468 108.641 574.147 108.641C560.73 108.722 548.196 108.722 536.467 108.641C534.378 108.641 532.289 108.481 530.2 108.159C523.532 107.276 517.587 101.009 515.578 95.3047C514.855 93.2158 514.453 90.4842 514.534 87.3509C514.614 80.2809 514.614 73.1306 514.534 65.9802C514.534 62.0435 514.935 59.0709 515.739 56.982C519.193 48.4659 526.826 43.9668 535.824 43.8864C548.196 43.7257 560.73 43.8061 573.424 43.9668C573.745 43.9668 574.066 44.2881 574.066 44.6095L573.906 58.8298C573.906 59.1512 573.584 59.4726 573.263 59.4726H535.181C533.092 59.4726 530.843 59.8743 530.361 62.2845C529.959 64.052 529.879 66.0605 530.039 68.2298C530.039 68.6315 530.361 68.8725 530.762 68.8725H571.174C571.817 68.8725 572.218 69.1938 572.138 69.8366V83.0125C572.138 83.4142 571.817 83.8159 571.335 83.8159L530.762 83.8963C530.441 84.0569 530.28 84.2176 530.2 84.539Z" fill="#59575A"/>
<path d="M609.255 60.8368C609.175 60.3547 608.773 59.953 608.291 59.8727C603.792 59.471 599.293 59.3906 594.874 59.6316C591.661 59.7923 588.447 59.471 585.233 59.471C584.832 59.471 584.43 59.1496 584.43 58.6676L584.35 45.0899C584.35 44.4472 584.671 44.1258 585.314 44.0455C586.68 43.9651 588.045 43.9651 589.331 43.9651C607.97 43.8045 627.653 43.8045 648.381 43.8848C648.944 43.8848 649.345 44.3668 649.345 44.8489L649.265 59.0693C649.265 59.3103 649.104 59.471 648.863 59.471L625.002 59.5513C624.761 59.5513 624.6 59.712 624.6 59.953C624.52 61.4795 624.44 63.0863 624.44 64.6931C624.359 78.9135 624.359 93.2946 624.44 107.756C624.44 108.479 624.118 108.8 623.395 108.8H610.38C609.978 108.8 609.657 108.479 609.577 108.077C609.496 105.346 609.416 102.694 609.416 100.284C609.496 89.4382 609.496 77.7887 609.496 65.1752C609.496 63.6487 609.496 62.2829 609.255 60.8368Z" fill="#59575A"/>
<path d="M197.836 130.697H212.478C215.034 130.697 216.774 130.405 217.698 129.82C218.652 129.204 219.161 128.08 219.222 126.448C219.222 124.539 218.76 123.307 217.836 122.753C216.913 122.198 214.911 121.921 211.832 121.921H197.836V130.697ZM222.917 139.289V144H219.176V141.46C219.176 139.396 219.007 137.934 218.668 137.071C218.329 136.209 217.621 135.593 216.543 135.224C215.465 134.854 213.695 134.67 211.231 134.67H197.836V144H194.095V117.949H212.94C216.913 117.949 219.576 118.442 220.931 119.427C222.317 120.412 223.01 122.291 223.01 125.062V126.032C223.01 128.064 222.656 129.573 221.947 130.559C221.27 131.544 220.238 132.237 218.853 132.637C220.577 132.945 221.686 133.53 222.178 134.392C222.671 135.224 222.917 136.856 222.917 139.289ZM240.372 144.323H239.402C236.199 144.323 233.797 144.062 232.196 143.538C230.626 143.015 229.532 142.122 228.917 140.859C228.301 139.566 227.993 137.61 227.993 134.993V134.531C227.993 130.774 228.716 128.295 230.164 127.094C231.611 125.894 234.552 125.293 238.986 125.293H239.91C242.897 125.293 245.145 125.555 246.654 126.078C248.193 126.571 249.24 127.356 249.794 128.434C250.38 129.481 250.672 131.036 250.672 133.099V135.409H231.457V135.686C231.457 138.149 231.934 139.751 232.889 140.49C233.874 141.198 236.061 141.552 239.448 141.552H240.187C243.174 141.552 245.129 141.321 246.053 140.859C246.977 140.366 247.439 139.412 247.439 137.995V137.533H250.811V138.088C250.811 140.49 250.056 142.137 248.547 143.03C247.038 143.892 244.313 144.323 240.372 144.323ZM231.503 132.914H247.254V132.453C247.254 131.221 247.085 130.312 246.746 129.727C246.438 129.142 245.761 128.711 244.714 128.434C243.667 128.126 242.035 127.972 239.817 127.972H239.263C235.968 127.972 233.859 128.265 232.935 128.85C232.042 129.435 231.565 130.79 231.503 132.914ZM278.518 118.041V144H275.147L275.054 141.46C274.377 142.568 273.407 143.323 272.144 143.723C270.913 144.123 268.942 144.323 266.232 144.323H265.678C261.367 144.323 258.534 143.723 257.179 142.522C255.855 141.321 255.193 138.811 255.193 134.993V134.485C255.193 130.666 255.87 128.188 257.225 127.048C258.58 125.878 261.397 125.293 265.678 125.293H266.371C268.926 125.293 270.851 125.493 272.144 125.894C273.438 126.263 274.392 126.987 275.008 128.064V118.041H278.518ZM266.278 141.46H267.202C270.589 141.46 272.745 141.075 273.669 140.305C274.592 139.535 275.054 137.764 275.054 134.993V134.485C275.054 131.713 274.592 129.958 273.669 129.219C272.745 128.48 270.589 128.111 267.202 128.111H266.278C262.983 128.111 260.889 128.48 259.996 129.219C259.134 129.958 258.703 131.713 258.703 134.485V134.993C258.703 137.764 259.149 139.535 260.043 140.305C260.936 141.075 263.014 141.46 266.278 141.46ZM296.17 144.323H295.2C291.997 144.323 289.595 144.062 287.994 143.538C286.423 143.015 285.33 142.122 284.714 140.859C284.099 139.566 283.791 137.61 283.791 134.993V134.531C283.791 130.774 284.514 128.295 285.962 127.094C287.409 125.894 290.35 125.293 294.784 125.293H295.708C298.695 125.293 300.943 125.555 302.451 126.078C303.991 126.571 305.038 127.356 305.592 128.434C306.177 129.481 306.47 131.036 306.47 133.099V135.409H287.255V135.686C287.255 138.149 287.732 139.751 288.687 140.49C289.672 141.198 291.859 141.552 295.246 141.552H295.985C298.972 141.552 300.927 141.321 301.851 140.859C302.775 140.366 303.237 139.412 303.237 137.995V137.533H306.609V138.088C306.609 140.49 305.854 142.137 304.345 143.03C302.836 143.892 300.111 144.323 296.17 144.323ZM287.301 132.914H303.052V132.453C303.052 131.221 302.883 130.312 302.544 129.727C302.236 129.142 301.558 128.711 300.511 128.434C299.464 128.126 297.832 127.972 295.615 127.972H295.061C291.766 127.972 289.657 128.265 288.733 128.85C287.84 129.435 287.363 130.79 287.301 132.914ZM323.554 144.323H322.076C318.843 144.323 316.456 144.169 314.917 143.861C313.377 143.523 312.33 142.999 311.776 142.291C311.252 141.552 310.99 140.428 310.99 138.919V138.226H314.501V138.596C314.501 139.489 314.639 140.12 314.917 140.49C315.194 140.859 315.84 141.136 316.857 141.321C317.904 141.506 319.613 141.598 321.984 141.598H323.462C326.326 141.598 328.142 141.429 328.912 141.09C329.682 140.721 330.067 139.966 330.067 138.827V138.503C330.067 137.734 329.898 137.195 329.559 136.887C329.251 136.548 328.543 136.302 327.434 136.148C326.356 135.963 324.601 135.871 322.168 135.871C317.673 135.871 314.763 135.547 313.438 134.901C312.145 134.254 311.499 132.853 311.499 130.697V130.235C311.499 128.357 312.176 127.064 313.531 126.355C314.886 125.647 317.457 125.293 321.245 125.293H322.399C326.587 125.293 329.343 125.647 330.667 126.355C332.022 127.033 332.7 128.465 332.7 130.651V131.205H329.328V130.79C329.328 129.62 328.928 128.865 328.127 128.526C327.326 128.157 325.479 127.972 322.584 127.972H321.522C318.658 127.972 316.841 128.126 316.071 128.434C315.301 128.711 314.917 129.342 314.917 130.328V130.651C314.917 131.729 315.348 132.422 316.21 132.73C317.103 133.007 319.228 133.145 322.584 133.145C327.018 133.145 329.944 133.499 331.36 134.208C332.777 134.885 333.485 136.255 333.485 138.319V138.734C333.485 140.859 332.808 142.322 331.453 143.122C330.098 143.923 327.465 144.323 323.554 144.323ZM372.342 118.041V144H368.97L368.878 141.46C368.2 142.568 367.23 143.323 365.968 143.723C364.736 144.123 362.765 144.323 360.055 144.323H359.501C355.19 144.323 352.357 143.723 351.002 142.522C349.678 141.321 349.016 138.811 349.016 134.993V134.485C349.016 130.666 349.693 128.188 351.048 127.048C352.403 125.878 355.221 125.293 359.501 125.293H360.194C362.75 125.293 364.674 125.493 365.968 125.894C367.261 126.263 368.216 126.987 368.831 128.064V118.041H372.342ZM360.102 141.46H361.025C364.413 141.46 366.568 141.075 367.492 140.305C368.416 139.535 368.878 137.764 368.878 134.993V134.485C368.878 131.713 368.416 129.958 367.492 129.219C366.568 128.48 364.413 128.111 361.025 128.111H360.102C356.807 128.111 354.713 128.48 353.82 129.219C352.958 129.958 352.526 131.713 352.526 134.485V134.993C352.526 137.764 352.973 139.535 353.866 140.305C354.759 141.075 356.837 141.46 360.102 141.46ZM389.993 144.323H389.023C385.821 144.323 383.419 144.062 381.817 143.538C380.247 143.015 379.154 142.122 378.538 140.859C377.922 139.566 377.614 137.61 377.614 134.993V134.531C377.614 130.774 378.338 128.295 379.785 127.094C381.232 125.894 384.173 125.293 388.607 125.293H389.531C392.518 125.293 394.766 125.555 396.275 126.078C397.815 126.571 398.861 127.356 399.416 128.434C400.001 129.481 400.293 131.036 400.293 133.099V135.409H381.078V135.686C381.078 138.149 381.556 139.751 382.51 140.49C383.496 141.198 385.682 141.552 389.069 141.552H389.808C392.795 141.552 394.751 141.321 395.674 140.859C396.598 140.366 397.06 139.412 397.06 137.995V137.533H400.432V138.088C400.432 140.49 399.678 142.137 398.169 143.03C396.66 143.892 393.935 144.323 389.993 144.323ZM381.125 132.914H396.875V132.453C396.875 131.221 396.706 130.312 396.367 129.727C396.059 129.142 395.382 128.711 394.335 128.434C393.288 128.126 391.656 127.972 389.439 127.972H388.884C385.59 127.972 383.48 128.265 382.556 128.85C381.663 129.435 381.186 130.79 381.125 132.914ZM445.38 135.917V136.794C445.38 138.888 445.01 140.459 444.271 141.506C443.563 142.522 442.285 143.246 440.437 143.677C438.62 144.108 435.849 144.323 432.123 144.323H430.922C428.582 144.323 426.673 144.293 425.194 144.231C423.747 144.169 422.438 144.015 421.268 143.769C420.098 143.523 419.221 143.246 418.636 142.938C418.05 142.63 417.573 142.152 417.204 141.506C416.834 140.859 416.603 140.182 416.511 139.473C416.418 138.734 416.372 137.749 416.372 136.517V135.686H420.16C420.16 137.164 420.391 138.195 420.853 138.781C421.315 139.366 422.223 139.766 423.578 139.981C424.964 140.197 427.35 140.305 430.737 140.305H431.846C434.71 140.305 436.804 140.197 438.128 139.981C439.483 139.735 440.406 139.319 440.899 138.734C441.392 138.149 441.638 137.241 441.638 136.009C441.638 135.055 441.407 134.377 440.945 133.977C440.514 133.546 439.56 133.238 438.081 133.053C436.634 132.868 434.279 132.776 431.014 132.776C428.397 132.776 426.272 132.699 424.64 132.545C423.008 132.391 421.653 132.175 420.575 131.898C419.529 131.621 418.743 131.175 418.22 130.559C417.727 129.943 417.388 129.281 417.204 128.573C417.05 127.833 416.973 126.833 416.973 125.57V124.693C416.973 121.89 417.804 120.012 419.467 119.057C421.161 118.103 424.532 117.626 429.583 117.626H430.645C434.771 117.626 437.789 117.856 439.698 118.318C441.607 118.749 442.885 119.473 443.532 120.489C444.179 121.475 444.502 123.061 444.502 125.247V126.032H440.807C440.807 124.739 440.591 123.8 440.16 123.214C439.729 122.629 438.851 122.214 437.527 121.967C436.203 121.721 434.063 121.598 431.107 121.598H430.229C426.349 121.598 423.809 121.829 422.608 122.291C421.407 122.722 420.776 123.661 420.714 125.108C420.776 126.124 421.022 126.864 421.453 127.325C421.915 127.787 422.885 128.126 424.363 128.342C425.841 128.557 428.166 128.665 431.338 128.665C435.464 128.665 438.497 128.88 440.437 129.312C442.408 129.743 443.717 130.436 444.363 131.39C445.041 132.345 445.38 133.854 445.38 135.917ZM462.526 144.323H461.556C458.353 144.323 455.951 144.062 454.35 143.538C452.78 143.015 451.686 142.122 451.071 140.859C450.455 139.566 450.147 137.61 450.147 134.993V134.531C450.147 130.774 450.87 128.295 452.318 127.094C453.765 125.894 456.706 125.293 461.14 125.293H462.064C465.051 125.293 467.299 125.555 468.808 126.078C470.347 126.571 471.394 127.356 471.948 128.434C472.534 129.481 472.826 131.036 472.826 133.099V135.409H453.611V135.686C453.611 138.149 454.088 139.751 455.043 140.49C456.028 141.198 458.215 141.552 461.602 141.552H462.341C465.328 141.552 467.283 141.321 468.207 140.859C469.131 140.366 469.593 139.412 469.593 137.995V137.533H472.965V138.088C472.965 140.49 472.21 142.137 470.701 143.03C469.192 143.892 466.467 144.323 462.526 144.323ZM453.657 132.914H469.408V132.453C469.408 131.221 469.239 130.312 468.9 129.727C468.592 129.142 467.915 128.711 466.868 128.434C465.821 128.126 464.189 127.972 461.971 127.972H461.417C458.122 127.972 456.013 128.265 455.089 128.85C454.196 129.435 453.719 130.79 453.657 132.914ZM488.986 150.744H487.924C483.921 150.744 481.211 150.39 479.795 149.681C478.409 148.973 477.716 147.464 477.716 145.155V144.554H481.227V145.016C481.227 146.156 481.642 146.91 482.474 147.279C483.336 147.649 485.153 147.834 487.924 147.834H488.986C492.343 147.834 494.498 147.449 495.453 146.679C496.438 145.909 496.962 144.293 497.024 141.829L496.931 139.843C496.408 140.89 495.499 141.644 494.206 142.106C492.943 142.537 491.003 142.753 488.386 142.753H487.786C483.567 142.753 480.765 142.214 479.379 141.136C478.024 140.028 477.347 137.749 477.347 134.3V133.792C477.347 130.312 478.024 128.034 479.379 126.956C480.734 125.847 483.505 125.293 487.693 125.293H488.294C490.819 125.293 492.728 125.509 494.021 125.94C495.345 126.34 496.361 127.079 497.07 128.157V125.616H500.488V141.46C500.488 143.523 500.334 145.124 500.026 146.263C499.749 147.433 499.148 148.373 498.224 149.081C497.301 149.789 496.146 150.236 494.76 150.42C493.405 150.636 491.481 150.744 488.986 150.744ZM488.34 139.935H489.217C492.512 139.935 494.637 139.581 495.592 138.873C496.546 138.165 497.024 136.61 497.024 134.208V133.746C497.024 131.406 496.531 129.881 495.545 129.173C494.591 128.465 492.482 128.111 489.217 128.111H488.34C485.137 128.111 483.074 128.449 482.15 129.127C481.257 129.804 480.811 131.344 480.811 133.746V134.208C480.811 136.64 481.257 138.211 482.15 138.919C483.043 139.597 485.107 139.935 488.34 139.935ZM528.767 125.616V144H525.21V140.905C523.855 143.184 520.945 144.323 516.48 144.323H515.88C512.062 144.323 509.49 143.769 508.166 142.66C506.842 141.521 506.18 139.35 506.18 136.148V125.616H509.737V135.316C509.737 137.841 510.152 139.489 510.984 140.259C511.846 141.028 513.771 141.413 516.757 141.413H517.358C520.222 141.413 522.254 141.013 523.455 140.212C524.656 139.381 525.256 137.811 525.256 135.501V125.616H528.767ZM538.342 133.977V144H534.832V125.616H538.296L538.388 128.896C539.035 127.603 539.928 126.679 541.067 126.124C542.207 125.57 543.916 125.293 546.195 125.293H546.656C549.859 125.293 551.938 125.709 552.892 126.54C553.878 127.372 554.37 128.957 554.37 131.298V131.944C554.37 132.037 554.355 132.175 554.324 132.36C554.324 132.545 554.324 132.683 554.324 132.776H551.091V131.806C551.091 130.235 550.752 129.235 550.075 128.803C549.397 128.342 547.827 128.111 545.363 128.111H544.994C542.746 128.111 541.067 128.557 539.959 129.45C538.881 130.312 538.342 131.821 538.342 133.977ZM561.797 125.616V144H558.287V125.616H561.797ZM561.797 118.041V121.875H558.287V118.041H561.797ZM590.166 118.041V144H586.794L586.701 141.46C586.024 142.568 585.054 143.323 583.791 143.723C582.56 144.123 580.589 144.323 577.879 144.323H577.325C573.014 144.323 570.181 143.723 568.826 142.522C567.502 141.321 566.84 138.811 566.84 134.993V134.485C566.84 130.666 567.517 128.188 568.872 127.048C570.227 125.878 573.045 125.293 577.325 125.293H578.018C580.574 125.293 582.498 125.493 583.791 125.894C585.085 126.263 586.039 126.987 586.655 128.064V118.041H590.166ZM577.925 141.46H578.849C582.236 141.46 584.392 141.075 585.316 140.305C586.24 139.535 586.701 137.764 586.701 134.993V134.485C586.701 131.713 586.24 129.958 585.316 129.219C584.392 128.48 582.236 128.111 578.849 128.111H577.925C574.63 128.111 572.536 128.48 571.643 129.219C570.781 129.958 570.35 131.713 570.35 134.485V134.993C570.35 137.764 570.797 139.535 571.69 140.305C572.583 141.075 574.661 141.46 577.925 141.46ZM617.193 134.115V144H613.683L613.637 142.152C612.959 142.984 612.035 143.553 610.865 143.861C609.726 144.169 607.94 144.323 605.507 144.323H604.768C600.981 144.323 598.471 143.938 597.239 143.169C596.007 142.368 595.392 140.859 595.392 138.642V138.226C595.392 136.071 596.023 134.608 597.285 133.838C598.579 133.068 600.981 132.683 604.491 132.683H605.276C607.771 132.683 609.618 132.807 610.819 133.053C612.051 133.299 612.99 133.746 613.637 134.392V133.376C613.637 132.052 613.575 131.082 613.452 130.466C613.36 129.85 613.052 129.327 612.528 128.896C612.005 128.465 611.312 128.203 610.45 128.111C609.587 128.018 608.294 127.972 606.57 127.972H605.877C603.259 127.972 601.535 128.157 600.703 128.526C599.903 128.896 599.503 129.65 599.503 130.79V131.205H596.084V130.651C596.084 128.557 596.793 127.141 598.209 126.402C599.657 125.663 602.243 125.293 605.969 125.293H606.754C609.187 125.293 611.019 125.385 612.251 125.57C613.514 125.724 614.545 126.14 615.346 126.817C616.146 127.495 616.654 128.372 616.87 129.45C617.086 130.497 617.193 132.052 617.193 134.115ZM605.877 141.644H606.431C609.418 141.644 611.373 141.444 612.297 141.044C613.221 140.644 613.683 139.797 613.683 138.503V138.272C613.683 137.01 613.206 136.209 612.251 135.871C611.327 135.501 609.31 135.316 606.2 135.316H605.553C602.751 135.316 600.934 135.501 600.103 135.871C599.302 136.24 598.902 137.056 598.902 138.319V138.503C598.902 139.858 599.318 140.721 600.149 141.09C600.981 141.46 602.89 141.644 605.877 141.644ZM645.512 118.041V144H642.141L642.048 141.46C641.371 142.568 640.401 143.323 639.138 143.723C637.907 144.123 635.936 144.323 633.226 144.323H632.672C628.361 144.323 625.528 143.723 624.173 142.522C622.849 141.321 622.187 138.811 622.187 134.993V134.485C622.187 130.666 622.864 128.188 624.219 127.048C625.574 125.878 628.391 125.293 632.672 125.293H633.364C635.92 125.293 637.845 125.493 639.138 125.894C640.432 126.263 641.386 126.987 642.002 128.064V118.041H645.512ZM633.272 141.46H634.196C637.583 141.46 639.739 141.075 640.663 140.305C641.586 139.535 642.048 137.764 642.048 134.993V134.485C642.048 131.713 641.586 129.958 640.663 129.219C639.739 128.48 637.583 128.111 634.196 128.111H633.272C629.977 128.111 627.883 128.48 626.99 129.219C626.128 129.958 625.697 131.713 625.697 134.485V134.993C625.697 137.764 626.143 139.535 627.036 140.305C627.929 141.075 630.008 141.46 633.272 141.46Z" fill="#ADA9AE"/>
</svg>
